<svg width="25" height="24" viewBox="0 0 25 24" fill="none" xmlns="http://www.w3.org/2000/svg">
<path opacity="0.4" d="M16.5418 2H19.9009C21.292 2 22.4193 3.14585 22.4193 4.55996V7.97452C22.4193 9.38864 21.292 10.5345 19.9009 10.5345H16.5418C15.1507 10.5345 14.0234 9.38864 14.0234 7.97452V4.55996C14.0234 3.14585 15.1507 2 16.5418 2" fill="#285BBE"/>
<path d="M8.45605 13.4658C9.84695 13.4661 10.9736 14.6115 10.9736 16.0254V19.4404C10.9734 20.8532 9.84685 21.9997 8.45605 22H5.09668C3.70567 22 2.57833 20.8534 2.57812 19.4404V16.0254C2.57817 14.6113 3.70557 13.4658 5.09668 13.4658H8.45605ZM19.9014 13.4658C21.2923 13.466 22.4189 14.6114 22.4189 16.0254V19.4404C22.4187 20.8533 21.2922 21.9998 19.9014 22H16.542C15.151 22 14.0236 20.8534 14.0234 19.4404V16.0254C14.0235 14.6113 15.1509 13.4658 16.542 13.4658H19.9014ZM8.45605 2C9.84685 2.00025 10.9734 3.1458 10.9736 4.55957V7.97461C10.9736 9.38853 9.84695 10.5339 8.45605 10.5342H5.09668C3.70557 10.5342 2.57817 9.38868 2.57812 7.97461V4.55957C2.57833 3.14564 3.70567 2 5.09668 2H8.45605Z" fill="#285BBE"/>
</svg>
