<svg width="432" height="172" viewBox="0 0 432 172" fill="none" xmlns="http://www.w3.org/2000/svg">
<g clip-path="url(#clip0_2118_20215)">
<path fill-rule="evenodd" clip-rule="evenodd" d="M20 0C8.95431 0 0 8.9543 0 20V151.138C0 162.183 8.95429 171.138 20 171.138H206.23C217.276 171.138 226.23 162.183 226.23 151.138V20C226.23 8.9543 217.276 0 206.23 0H20ZM120.014 119.562L141.019 53.9201H120.014L107.917 91.711L96.4768 53.9201H76.1278L64.031 91.2421L52.5906 53.9201H29.8035L50.8089 119.562H74.5337L85.6928 84.4904L96.2893 119.562H120.014ZM195.818 98.8378C196.006 95.8371 196.099 94.1804 196.099 93.8678C196.099 88.3039 194.818 83.5214 192.255 79.5204C189.754 75.5194 186.347 72.4873 182.033 70.4243C177.782 68.3613 173.062 67.3298 167.873 67.3298C162.372 67.3298 157.402 68.455 152.963 70.7056C148.587 72.9562 145.117 76.1133 142.554 80.1768C140.054 84.1778 138.803 88.7415 138.803 93.8678C138.803 98.9316 140.085 103.495 142.648 107.559C145.211 111.622 148.837 114.811 153.526 117.124C158.215 119.374 163.653 120.5 169.843 120.5C179.783 120.5 187.253 117.749 192.255 112.248L181.189 101.088C179.376 102.464 177.688 103.433 176.125 103.995C174.625 104.558 172.75 104.839 170.499 104.839C167.873 104.839 165.685 104.339 163.935 103.339C162.184 102.276 160.934 100.776 160.184 98.8378H195.818ZM162.622 83.5527C164.06 82.3649 165.873 81.771 168.061 81.771C170.249 81.771 172.062 82.3961 173.5 83.6464C174.938 84.8343 175.875 86.4909 176.313 88.6165H159.809C160.246 86.4284 161.184 84.7405 162.622 83.5527Z" fill="#285BBE"/>
<path d="M304.658 108.122H279.714L275.307 119.562H252.801L281.496 53.9205H303.251L331.946 119.562H309.065L304.658 108.122ZM298.563 92.1803L292.186 75.6761L285.809 92.1803H298.563Z" fill="#285BBE"/>
<path d="M354.983 73.8006C358.734 69.487 364.267 67.3302 371.581 67.3302V86.085C369.893 85.835 368.33 85.7099 366.892 85.7099C359.64 85.7099 356.014 89.3984 356.014 96.7753V119.562H334.822V68.2679H354.983V73.8006Z" fill="#285BBE"/>
<path d="M431.706 93.8683C431.706 94.1808 431.613 95.8375 431.425 98.8383H395.791C396.541 100.776 397.791 102.277 399.542 103.339C401.292 104.34 403.48 104.84 406.106 104.84C408.357 104.84 410.232 104.559 411.732 103.996C413.295 103.433 414.983 102.464 416.796 101.089L427.862 112.248C422.86 117.749 415.39 120.5 405.45 120.5C399.26 120.5 393.822 119.375 389.133 117.124C384.444 114.811 380.818 111.623 378.255 107.559C375.692 103.496 374.41 98.9321 374.41 93.8683C374.41 88.7419 375.661 84.1783 378.161 80.1772C380.724 76.1137 384.194 72.9567 388.57 70.7061C393.009 68.4555 397.979 67.3302 403.48 67.3302C408.669 67.3302 413.389 68.3617 417.64 70.4247C421.954 72.4878 425.361 75.5198 427.862 79.5208C430.425 83.5219 431.706 88.3043 431.706 93.8683ZM403.668 81.7714C401.48 81.7714 399.667 82.3653 398.229 83.5531C396.791 84.7409 395.853 86.4289 395.416 88.6169H411.92C411.482 86.4914 410.545 84.8347 409.107 83.6469C407.669 82.3966 405.856 81.7714 403.668 81.7714Z" fill="#285BBE"/>
</g>
<defs>
<clipPath id="clip0_2118_20215">
<rect width="431.707" height="171.138" fill="white"/>
</clipPath>
</defs>
</svg>
