<svg width="25" height="24" viewBox="0 0 25 24" fill="none" xmlns="http://www.w3.org/2000/svg">
<path fill-rule="evenodd" clip-rule="evenodd" d="M16.8806 2H20.1472C21.4987 2 22.5951 3.1059 22.5951 4.47018V7.7641C22.5951 9.12735 21.4987 10.2343 20.1472 10.2343H16.8806C15.528 10.2343 14.4316 9.12735 14.4316 7.7641V4.47018C14.4316 3.1059 15.528 2 16.8806 2Z" stroke="#C7C9D9" stroke-width="1.5" stroke-linecap="round" stroke-linejoin="round"/>
<path fill-rule="evenodd" clip-rule="evenodd" d="M5.04462 2H8.31019C9.66274 2 10.7591 3.1059 10.7591 4.47018V7.7641C10.7591 9.12735 9.66274 10.2343 8.31019 10.2343H5.04462C3.69208 10.2343 2.5957 9.12735 2.5957 7.7641V4.47018C2.5957 3.1059 3.69208 2 5.04462 2Z" stroke="#C7C9D9" stroke-width="1.5" stroke-linecap="round" stroke-linejoin="round"/>
<path fill-rule="evenodd" clip-rule="evenodd" d="M5.04462 13.7656H8.31019C9.66274 13.7656 10.7591 14.8715 10.7591 16.2368V19.5297C10.7591 20.894 9.66274 21.9999 8.31019 21.9999H5.04462C3.69208 21.9999 2.5957 20.894 2.5957 19.5297V16.2368C2.5957 14.8715 3.69208 13.7656 5.04462 13.7656Z" stroke="#C7C9D9" stroke-width="1.5" stroke-linecap="round" stroke-linejoin="round"/>
<path fill-rule="evenodd" clip-rule="evenodd" d="M16.8806 13.7656H20.1472C21.4987 13.7656 22.5951 14.8715 22.5951 16.2368V19.5297C22.5951 20.894 21.4987 21.9999 20.1472 21.9999H16.8806C15.528 21.9999 14.4316 20.894 14.4316 19.5297V16.2368C14.4316 14.8715 15.528 13.7656 16.8806 13.7656Z" stroke="#C7C9D9" stroke-width="1.5" stroke-linecap="round" stroke-linejoin="round"/>
</svg>
