<svg width="25" height="24" viewBox="0 0 25 24" fill="none" xmlns="http://www.w3.org/2000/svg">
<ellipse cx="12.0839" cy="6.77803" rx="4.74011" ry="4.77803" stroke="#C7C9D9" stroke-width="1.5" stroke-linecap="round" stroke-linejoin="round"/>
<path fill-rule="evenodd" clip-rule="evenodd" d="M4.56447 18.2016C4.5632 17.8657 4.63772 17.5339 4.78241 17.2313C5.23644 16.316 6.51681 15.8308 7.57925 15.6112C8.34548 15.4463 9.12229 15.3362 9.9039 15.2816C11.351 15.1535 12.8064 15.1535 14.2535 15.2816C15.0351 15.3369 15.8119 15.447 16.5782 15.6112C17.6406 15.8308 18.921 16.2702 19.375 17.2313C19.666 17.8481 19.666 18.5642 19.375 19.181C18.921 20.1421 17.6406 20.5814 16.5782 20.7919C15.8129 20.9636 15.0358 21.0768 14.2535 21.1306C13.0757 21.2313 11.8924 21.2496 10.7121 21.1855C10.4397 21.1855 10.1763 21.1855 9.9039 21.1306C9.1246 21.0775 8.35048 20.9642 7.58833 20.7919C6.51681 20.5814 5.24552 20.1421 4.78241 19.181C4.63846 18.8749 4.56401 18.5403 4.56447 18.2016Z" stroke="#C7C9D9" stroke-width="1.5" stroke-linecap="round" stroke-linejoin="round"/>
</svg>
