<svg width="30" height="30" viewBox="0 0 30 30" fill="none" xmlns="http://www.w3.org/2000/svg">
<path d="M10.625 16.25C12.3509 16.25 13.75 17.6491 13.75 19.375V24.375C13.75 26.1009 12.3509 27.5 10.625 27.5H5.625C3.89911 27.5 2.5 26.1009 2.5 24.375V19.375C2.5 17.6491 3.89911 16.25 5.625 16.25H10.625ZM26.25 23.75C26.5952 23.75 26.875 24.0298 26.875 24.375V26.25C26.875 26.5952 26.5952 26.875 26.25 26.875H24.375C24.0298 26.875 23.75 26.5952 23.75 26.25V24.375C23.75 24.0298 24.0298 23.75 24.375 23.75H26.25ZM19.375 23.75C19.7202 23.75 20 24.0298 20 24.375V26.25C20 26.5952 19.7202 26.875 19.375 26.875H17.5C17.1548 26.875 16.875 26.5952 16.875 26.25V24.375C16.875 24.0298 17.1548 23.75 17.5 23.75H19.375ZM10.3125 18.4375H5.9375C5.24714 18.4375 4.6875 18.9971 4.6875 19.6875V24.0625C4.6875 24.7529 5.24714 25.3125 5.9375 25.3125H10.3125C11.0029 25.3125 11.5625 24.7529 11.5625 24.0625V19.6875C11.5625 18.9971 11.0029 18.4375 10.3125 18.4375ZM22.8125 20.3125C23.1577 20.3125 23.4375 20.5923 23.4375 20.9375V22.8125C23.4375 23.1577 23.1577 23.4375 22.8125 23.4375H20.9375C20.5923 23.4375 20.3125 23.1577 20.3125 22.8125V20.9375C20.3125 20.5923 20.5923 20.3125 20.9375 20.3125H22.8125ZM9.0625 20.3125C9.40768 20.3125 9.6875 20.5923 9.6875 20.9375V22.8125C9.6875 23.1577 9.40768 23.4375 9.0625 23.4375H7.1875C6.84232 23.4375 6.5625 23.1577 6.5625 22.8125V20.9375C6.5625 20.5923 6.84232 20.3125 7.1875 20.3125H9.0625ZM26.25 16.875C26.5952 16.875 26.875 17.1548 26.875 17.5V19.375C26.875 19.7202 26.5952 20 26.25 20H24.375C24.0298 20 23.75 19.7202 23.75 19.375V17.5C23.75 17.1548 24.0298 16.875 24.375 16.875H26.25ZM19.375 16.875C19.7202 16.875 20 17.1548 20 17.5V19.375C20 19.7202 19.7202 20 19.375 20H17.5C17.1548 20 16.875 19.7202 16.875 19.375V17.5C16.875 17.1548 17.1548 16.875 17.5 16.875H19.375ZM24.375 2.5C26.1009 2.5 27.5 3.89911 27.5 5.625V10.625C27.5 12.3509 26.1009 13.75 24.375 13.75H19.375C17.6491 13.75 16.25 12.3509 16.25 10.625V5.625C16.25 3.89911 17.6491 2.5 19.375 2.5H24.375ZM10.625 2.5C12.3509 2.5 13.75 3.89911 13.75 5.625V10.625C13.75 12.3509 12.3509 13.75 10.625 13.75H5.625C3.89911 13.75 2.5 12.3509 2.5 10.625V5.625C2.5 3.89911 3.89911 2.5 5.625 2.5H10.625ZM24.0625 4.6875H19.6875C18.9971 4.6875 18.4375 5.24714 18.4375 5.9375V10.3125C18.4375 11.0029 18.9971 11.5625 19.6875 11.5625H24.0625C24.7529 11.5625 25.3125 11.0029 25.3125 10.3125V5.9375C25.3125 5.24714 24.7529 4.6875 24.0625 4.6875ZM10.3125 4.6875H5.9375C5.24714 4.6875 4.6875 5.24714 4.6875 5.9375V10.3125C4.6875 11.0029 5.24714 11.5625 5.9375 11.5625H10.3125C11.0029 11.5625 11.5625 11.0029 11.5625 10.3125V5.9375C11.5625 5.24714 11.0029 4.6875 10.3125 4.6875ZM22.8125 6.5625C23.1577 6.5625 23.4375 6.84232 23.4375 7.1875V9.0625C23.4375 9.40768 23.1577 9.6875 22.8125 9.6875H20.9375C20.5923 9.6875 20.3125 9.40768 20.3125 9.0625V7.1875C20.3125 6.84232 20.5923 6.5625 20.9375 6.5625H22.8125ZM9.0625 6.5625C9.40768 6.5625 9.6875 6.84232 9.6875 7.1875V9.0625C9.6875 9.40768 9.40768 9.6875 9.0625 9.6875H7.1875C6.84232 9.6875 6.5625 9.40768 6.5625 9.0625V7.1875C6.5625 6.84232 6.84232 6.5625 7.1875 6.5625H9.0625Z" fill="#285BBE"/>
</svg>
